<svg width="1452" height="242" viewBox="0 0 1452 242" fill="none" xmlns="http://www.w3.org/2000/svg">
<path fill-rule="evenodd" clip-rule="evenodd" d="M1452 218L1391 182C1331 145 1210 73 1089 73C968 73 847 145 726 189C605 233 484 247 363 240C242 233 121 203 60 189L5.91943e-06 174L2.1131e-05 -9.64203e-05L60 -9.11749e-05C121 -8.58421e-05 242 -7.5264e-05 363 -6.46858e-05C484 -5.41077e-05 605 -4.35295e-05 726 -3.29514e-05C847 -2.23732e-05 968 -1.1795e-05 1089 -1.21689e-06C1210 9.36127e-06 1331 1.99394e-05 1391 2.51848e-05L1452 3.05176e-05L1452 218Z" fill="white"/>
</svg>
